HIERARCHY
ROOT Hips
{
	OFFSET 0.000000 0.000000 0.000000
	CHANNELS 6 Xposition Yposition Zposition Xrotation Yrotation Zrotation
	JOINT LeftUpLeg_virtual
	{
		OFFSET 0.000000 0.000000 0.000000
		CHANNELS 3 Xrotation Yrotation Zrotation
		JOINT LeftUpLeg
		{
			OFFSET 13.026900 -6.336304 -1.092800
			CHANNELS 3 Xrotation Yrotation Zrotation
			JOINT LeftLeg
			{
				OFFSET 0.524474 -46.096886 9.782700
				CHANNELS 3 Xrotation Yrotation Zrotation
				JOINT LeftFoot
				{
					OFFSET -0.524474 -53.427422 -12.948200
					CHANNELS 3 Xrotation Yrotation Zrotation
					JOINT LeftToeBase
					{
						OFFSET 0.192200 -14.009700 16.364100
						CHANNELS 3 Xrotation Yrotation Zrotation
						JOINT LeftToe_End
						{
							OFFSET -1.784700 -0.561700 9.474800
							CHANNELS 3 Xrotation Yrotation Zrotation
							End Site
							{
								OFFSET 0 0 0
							}
						}
					}
				}
			}
		}
	}
	JOINT RightUpLeg_virtual
	{
		OFFSET 0.000000 0.000000 0.000000
		CHANNELS 3 Xrotation Yrotation Zrotation
		JOINT RightUpLeg
		{
			OFFSET -12.883000 -6.336304 -1.092800
			CHANNELS 3 Xrotation Yrotation Zrotation
			JOINT RightLeg
			{
				OFFSET -0.524587 -46.096825 9.782800
				CHANNELS 3 Xrotation Yrotation Zrotation
				JOINT RightFoot
				{
					OFFSET 0.524587 -53.427383 -12.948300
					CHANNELS 3 Xrotation Yrotation Zrotation
					JOINT RightToeBase
					{
						OFFSET -0.192200 -14.009700 16.364100
						CHANNELS 3 Xrotation Yrotation Zrotation
						JOINT RightToe_End
						{
							OFFSET 1.784700 -0.561700 9.474800
							CHANNELS 3 Xrotation Yrotation Zrotation
							End Site
							{
								OFFSET 0 0 0
							}
						}
					}
				}
			}
		}
	}
	JOINT Spine_virtual
	{
		OFFSET 0.000000 0.000000 0.000000
		CHANNELS 3 Xrotation Yrotation Zrotation
		JOINT Spine
		{
			OFFSET 0.072000 7.257294 -0.789700
			CHANNELS 3 Xrotation Yrotation Zrotation
			JOINT Spine1
			{
				OFFSET 0.000000 12.508769 -0.658067
				CHANNELS 3 Xrotation Yrotation Zrotation
				JOINT Spine1_split
				{
					OFFSET 0.000000 12.508769 -0.658067
					CHANNELS 3 Xrotation Yrotation Zrotation
					JOINT Spine2
					{
						OFFSET 0.000000 12.508769 -0.658067
						CHANNELS 3 Xrotation Yrotation Zrotation
						JOINT Neck_virtual
						{
							OFFSET 0.000000 0.000000 0.000000
							CHANNELS 3 Xrotation Yrotation Zrotation
							JOINT Neck
							{
								OFFSET 0.000000 14.033295 7.520400
								CHANNELS 3 Xrotation Yrotation Zrotation
								JOINT Head
								{
									OFFSET 0.000000 8.198502 5.703100
									CHANNELS 3 Xrotation Yrotation Zrotation
									JOINT HeadTop_End
									{
										OFFSET 0.000000 17.760803 13.332701
										CHANNELS 3 Xrotation Yrotation Zrotation
										End Site
										{
											OFFSET 0 0 0
										}
									}
								}
							}
						}
						JOINT LeftShoulder_virtual
						{
							OFFSET 0.000000 0.000000 0.000000
							CHANNELS 3 Xrotation Yrotation Zrotation
							JOINT LeftShoulder
							{
								OFFSET 6.292450 5.785301 -0.669000
								CHANNELS 3 Xrotation Yrotation Zrotation
								JOINT LeftShoulder_split
								{
									OFFSET 6.292450 5.785301 -0.669000
									CHANNELS 3 Xrotation Yrotation Zrotation
									JOINT LeftArm
									{
										OFFSET 13.907140 -6.093903 1.965100
										CHANNELS 3 Xrotation Yrotation Zrotation
										JOINT LeftForeArm
										{
											OFFSET 34.140198 0.000000 0.000000
											CHANNELS 3 Xrotation Yrotation Zrotation
											JOINT LeftHand
											{
												OFFSET 40.960209 0.000000 0.000000
												CHANNELS 3 Xrotation Yrotation Zrotation
												End Site
												{
													OFFSET 0 0 0
												}
											}
										}
									}
								}
							}
						}
						JOINT RightShoulder_virtual
						{
							OFFSET 0.000000 0.000000 0.000000
							CHANNELS 3 Xrotation Yrotation Zrotation
							JOINT RightShoulder
							{
								OFFSET -6.292450 5.785301 -0.669000
								CHANNELS 3 Xrotation Yrotation Zrotation
								JOINT RightShoulder_split
								{
									OFFSET -6.292450 5.785301 -0.669000
									CHANNELS 3 Xrotation Yrotation Zrotation
									JOINT RightArm
									{
										OFFSET -13.907140 -6.093903 1.965100
										CHANNELS 3 Xrotation Yrotation Zrotation
										JOINT RightForeArm
										{
											OFFSET -34.140198 0.000000 0.000000
											CHANNELS 3 Xrotation Yrotation Zrotation
											JOINT RightHand
											{
												OFFSET -40.960209 0.000000 0.000000
												CHANNELS 3 Xrotation Yrotation Zrotation
												End Site
												{
													OFFSET 0 0 0
												}
											}
										}
									}
								}
							}
						}
					}
				}
			}
		}
	}
}
MOTION
Frames: 11
Frame Time: 0.03333333
1.949186 64.134216 16.653870 0.000000 0.000000 0.000000 8.207264 7.119029 1.551291 -99.555772 -8.142371 9.990824 85.191597 4.938366 -0.960628 13.560681 -6.044990 -10.078184 -4.500188 0.257312 -0.159166 0.000000 0.000000 0.000000 7.940654 7.427209 1.612369 -101.361674 13.803241 -11.161119 86.136151 -4.118082 -1.158590 12.138583 1.084224 9.894545 0.918086 0.784102 -0.284157 0.000000 0.000000 0.000000 9.033881 4.879211 1.156345 5.516825 -2.257155 -2.606288 15.586300 -1.158900 -0.759681 1.069640 0.342987 0.226281 0.000000 0.000000 0.000000 16.852112 -1.187383 -0.570430 -2.077251 -2.756968 -1.313214 -52.876681 2.616799 -8.186073 0.000000 0.000000 0.000000 16.253736 -1.419950 -0.411298 0.575332 -15.790245 4.428853 -4.210745 -4.751423 -1.729351 -61.007769 -27.726453 -15.577182 177.029788 -69.707183 178.795569 0.000000 0.000000 0.000000 15.182606 -1.713719 -0.491080 1.610270 14.572851 -2.801286 3.928836 0.139606 4.153301 -85.596026 29.613743 30.317321 -178.476094 53.856206 175.108237 0.000000 0.000000 0.000000 
1.907331 64.233788 16.519306 0.000000 0.000000 0.000000 8.660962 6.862664 1.295644 -99.780956 -8.504459 9.954009 84.811053 4.798816 -0.835118 13.582404 -6.230702 -10.078427 -4.402510 0.281401 -0.174443 0.000000 0.000000 0.000000 8.367300 7.202128 1.360866 -101.478053 13.727194 -10.903024 85.630997 -4.133760 -1.299178 12.011301 1.138031 10.018069 1.038053 0.771627 -0.258240 0.000000 0.000000 0.000000 9.491147 4.896273 0.885462 5.370515 -2.266487 -2.566387 15.935007 -1.182656 -0.670122 0.769205 0.264527 0.224727 0.000000 0.000000 0.000000 17.140976 -1.131827 -0.560452 0.052654 -2.864465 -1.356491 -51.746411 3.032298 -8.027149 0.000000 0.000000 0.000000 16.638853 -1.397080 -0.361689 0.551742 -14.751291 5.231320 -3.758602 -4.559865 -1.603734 -60.057806 -26.994991 -15.734668 177.558199 -68.952918 179.500800 0.000000 0.000000 0.000000 15.712381 -1.689668 -0.441492 1.354078 13.611817 -2.305418 3.303160 0.800721 3.986416 -84.035048 30.212871 29.506752 -178.406918 54.094849 175.288377 0.000000 0.000000 0.000000 
1.819853 64.303391 16.441395 0.000000 0.000000 0.000000 9.159603 6.622001 1.112863 -99.988744 -8.793773 9.823177 84.411904 4.735756 -0.736910 13.571822 -6.334265 -10.056177 -4.332705 0.297082 -0.159922 0.000000 0.000000 0.000000 8.860640 7.071483 1.167711 -101.616317 13.726654 -10.689662 85.095838 -4.183451 -1.390919 11.910445 1.108215 10.065310 1.090379 0.756560 -0.184985 0.000000 0.000000 0.000000 9.987197 5.028212 0.609440 5.308333 -2.279708 -2.503341 16.444374 -1.152785 -0.642629 0.574207 0.371765 0.355245 0.000000 0.000000 0.000000 17.505780 -1.040216 -0.599041 2.907399 -2.927705 -1.594317 -50.308223 3.160951 -8.080034 0.000000 0.000000 0.000000 17.219059 -1.339819 -0.380550 0.565911 -14.119571 6.081059 -2.928248 -4.815376 -1.510786 -57.194420 -25.539945 -15.737770 178.248335 -67.522014 -179.627896 0.000000 0.000000 0.000000 16.475067 -1.594976 -0.453770 1.091564 12.858846 -1.597535 2.933689 1.629496 3.892743 -81.062679 31.260147 28.257633 -178.352645 54.956655 175.483297 0.000000 0.000000 0.000000 
1.707529 64.301697 16.423100 0.000000 0.000000 0.000000 9.673899 6.415793 1.042740 -100.181875 -8.932072 9.641320 84.110727 4.768326 -0.706291 13.528498 -6.305317 -9.996709 -4.314755 0.304768 -0.116734 0.000000 0.000000 0.000000 9.386066 7.057555 1.075146 -101.816885 13.791879 -10.592629 84.661445 -4.250021 -1.421012 11.865481 1.036297 10.078445 1.030512 0.740874 -0.092437 0.000000 0.000000 0.000000 10.477520 5.227483 0.405924 5.298839 -2.303166 -2.459716 16.939771 -1.100956 -0.671913 0.506547 0.359661 0.435084 0.000000 0.000000 0.000000 17.823425 -0.941038 -0.672086 5.960209 -2.922783 -2.017269 -48.927678 2.960805 -8.369966 0.000000 0.000000 0.000000 17.778446 -1.267572 -0.465784 0.599716 -13.947206 6.746069 -1.898418 -5.577772 -1.537671 -52.899296 -24.113378 -15.459933 178.802714 -65.670568 -178.923758 0.000000 0.000000 0.000000 17.231046 -1.461746 -0.503786 0.890435 12.379557 -0.887094 2.681283 2.127091 3.824820 -77.175428 32.488444 26.587218 -178.408380 56.051551 175.787172 0.000000 0.000000 0.000000 
1.588567 64.245422 16.524395 0.000000 0.000000 0.000000 10.167425 6.314156 1.085319 -100.380012 -8.886537 9.482934 83.988131 4.883745 -0.756539 13.453205 -6.123106 -9.914735 -4.310110 0.308373 -0.061299 0.000000 0.000000 0.000000 9.911534 7.150257 1.088490 -102.096247 13.906800 -10.648862 84.398844 -4.317949 -1.381540 11.862760 0.964695 10.099093 0.934974 0.730097 -0.012718 0.000000 0.000000 0.000000 10.938741 5.473308 0.318695 5.326935 -2.340532 -2.458912 17.226120 -1.065042 -0.733921 0.647696 0.396227 0.541633 0.000000 0.000000 0.000000 17.964077 -0.857297 -0.731669 8.592431 -2.831319 -2.530326 -47.885818 2.546475 -8.866742 0.000000 0.000000 0.000000 18.094631 -1.215849 -0.576240 0.641715 -14.320588 7.147585 -1.087749 -6.295936 -1.575452 -48.516278 -23.193043 -14.718383 179.055526 -64.024342 -178.576129 0.000000 0.000000 0.000000 17.713677 -1.330094 -0.554904 0.769059 12.179230 -0.437053 2.457745 2.253103 3.781434 -73.286864 33.551044 24.735629 -178.596756 56.701693 176.160974 0.000000 0.000000 0.000000 
1.509936 64.153503 16.667915 0.000000 0.000000 0.000000 10.621241 6.285024 1.198564 -100.597430 -8.680121 9.393867 84.041120 5.051892 -0.869005 13.363298 -5.817033 -9.830188 -4.265743 0.313374 -0.015198 0.000000 0.000000 0.000000 10.423317 7.286298 1.173018 -102.437080 14.041221 -10.829923 84.324778 -4.371800 -1.286342 11.861100 0.929625 10.121566 0.897131 0.728661 0.036538 0.000000 0.000000 0.000000 11.382876 5.704475 0.353657 5.375954 -2.388219 -2.493440 17.140817 -1.069993 -0.804197 0.751021 0.241011 0.538821 0.000000 0.000000 0.000000 17.819453 -0.809222 -0.756711 10.319504 -2.712211 -3.025078 -47.330909 1.902632 -9.515810 0.000000 0.000000 0.000000 17.973959 -1.184507 -0.676483 0.692457 -15.035055 7.269101 -0.408374 -6.482059 -1.415968 -45.404290 -22.996122 -13.265441 179.059802 -63.129417 -178.484031 0.000000 0.000000 0.000000 17.712661 -1.234198 -0.584408 0.742178 12.144418 -0.499325 2.323202 2.297337 3.522206 -70.529442 34.062362 23.277321 -178.910057 56.409593 176.595074 0.000000 0.000000 0.000000 
1.496136 64.031746 16.849300 0.000000 0.000000 0.000000 11.005799 6.316839 1.331894 -100.840032 -8.384565 9.398121 84.203754 5.211185 -0.991764 13.264109 -5.485475 -9.807931 -4.190191 0.320923 0.017811 0.000000 0.000000 0.000000 10.882420 7.429099 1.283805 -102.759240 14.167064 -11.097270 84.383647 -4.414695 -1.145320 11.867685 0.945942 10.135773 0.898602 0.737343 0.045976 0.000000 0.000000 0.000000 11.793802 5.845839 0.500628 5.428218 -2.429428 -2.545804 16.577492 -1.124872 -0.849445 0.770389 -0.029679 0.585656 0.000000 0.000000 0.000000 17.275307 -0.802597 -0.730697 10.856029 -2.578547 -3.405820 -47.124873 1.129281 -10.250754 0.000000 0.000000 0.000000 17.356974 -1.190981 -0.730984 0.753921 -15.837957 7.135310 -0.368740 -5.896714 -1.357279 -44.171189 -23.470726 -11.055125 178.941695 -63.142162 -178.523687 0.000000 0.000000 0.000000 17.109935 -1.200087 -0.572421 0.814067 12.225065 -1.097838 2.182190 2.212810 3.084397 -69.589615 33.833349 22.770872 -179.192786 55.246463 176.952279 0.000000 0.000000 0.000000 
1.554458 63.924652 17.039913 0.000000 0.000000 0.000000 11.265076 6.358468 1.432571 -101.083262 -8.104155 9.488652 84.439218 5.317021 -1.075909 13.218952 -5.220062 -9.870467 -4.116987 0.327101 0.037515 0.000000 0.000000 0.000000 11.243097 7.477893 1.385330 -103.008316 14.260816 -11.367755 84.502786 -4.448338 -0.988940 11.916397 1.004679 10.149342 0.885232 0.753638 0.019876 0.000000 0.000000 0.000000 12.170612 5.840674 0.717410 5.494365 -2.444878 -2.592740 15.514945 -1.218642 -0.861427 0.797355 -0.271132 0.598357 0.000000 0.000000 0.000000 16.273397 -0.833667 -0.663662 10.208416 -2.428160 -3.617979 -46.984677 0.344387 -10.956547 0.000000 0.000000 0.000000 16.222980 -1.230200 -0.740672 0.809564 -16.483731 6.732847 -0.612627 -4.981103 -1.324557 -44.623323 -24.394584 -8.527489 178.784327 -63.578987 -178.668214 0.000000 0.000000 0.000000 15.917437 -1.218759 -0.520090 0.963540 12.357107 -2.164210 2.053584 2.041424 2.616672 -70.413916 32.667921 23.477308 -179.360768 53.670643 177.147295 0.000000 0.000000 0.000000 
1.668349 63.833038 17.167412 0.000000 0.000000 0.000000 11.358540 6.371964 1.473291 -101.275832 -7.917586 9.624170 84.671676 5.341818 -1.086580 13.263409 -5.100199 -9.986691 -4.064407 0.326280 0.049564 0.000000 0.000000 0.000000 11.446671 7.403652 1.453896 -103.123036 14.294750 -11.561384 84.582727 -4.472716 -0.855810 11.991203 1.080874 10.152644 0.815208 0.768533 -0.032490 0.000000 0.000000 0.000000 12.457588 5.658363 0.973126 5.570902 -2.407726 -2.610902 14.024104 -1.314657 -0.852623 0.731629 -0.533804 0.447159 0.000000 0.000000 0.000000 14.826968 -0.885843 -0.581402 8.657995 -2.254793 -3.661502 -46.516693 -0.414263 -11.567409 0.000000 0.000000 0.000000 14.646789 -1.276655 -0.728807 0.831374 -16.724784 6.060270 -1.203568 -4.150437 -1.579425 -45.873319 -25.608968 -6.176791 178.678951 -63.808590 -178.872573 0.000000 0.000000 0.000000 14.252222 -1.262189 -0.453244 1.167809 12.489243 -3.444335 2.119950 1.821751 2.110457 -72.297634 30.612519 25.198984 -179.387801 52.147487 177.214244 0.000000 0.000000 0.000000 
1.811177 63.767101 17.270351 0.000000 0.000000 0.000000 11.229595 6.323864 1.459704 -101.318288 -7.853223 9.785446 84.818997 5.280558 -1.024408 13.398498 -5.157376 -10.106490 -4.015102 0.313056 0.054556 0.000000 0.000000 0.000000 11.396497 7.193285 1.489625 -103.032926 14.247757 -11.671082 84.595014 -4.496790 -0.757653 12.054311 1.141465 10.109424 0.705584 0.778249 -0.096195 0.000000 0.000000 0.000000 12.574622 5.328908 1.210346 5.677315 -2.304975 -2.604550 12.224340 -1.390167 -0.842832 0.753822 -0.764196 0.360729 0.000000 0.000000 0.000000 13.041496 -0.935847 -0.506505 6.606905 -2.024167 -3.557920 -45.325487 -0.989437 -11.941641 0.000000 0.000000 0.000000 12.764182 -1.313896 -0.711072 0.813240 -16.555521 5.213388 -2.064182 -3.676853 -2.164801 -47.143332 -26.813260 -4.448256 178.684374 -63.445094 -179.125877 0.000000 0.000000 0.000000 12.290386 -1.303443 -0.386259 1.384554 12.589458 -4.708420 2.259128 1.465261 1.822323 -74.163963 27.975242 27.461373 -179.296823 50.972780 177.155559 0.000000 0.000000 0.000000 
1.961872 63.746830 17.267387 0.000000 0.000000 0.000000 10.825973 6.186092 1.409396 -101.106758 -7.901597 9.928235 84.807017 5.167851 -0.911518 13.611266 -5.357276 -10.148173 -3.952650 0.290772 0.049940 0.000000 0.000000 0.000000 11.028917 6.877389 1.500645 -102.700275 14.106709 -11.707158 84.556314 -4.519443 -0.709116 12.084241 1.152814 9.980647 0.664915 0.781922 -0.153060 0.000000 0.000000 0.000000 12.414792 4.933146 1.390014 5.835468 -2.142286 -2.580236 10.292732 -1.422781 -0.853219 0.824801 -0.998693 0.206377 0.000000 0.000000 0.000000 11.115172 -0.956837 -0.470613 4.562659 -1.747239 -3.335836 -43.220501 -1.378846 -11.999572 0.000000 0.000000 0.000000 10.725876 -1.311030 -0.709930 0.762425 -16.029568 4.362729 -2.729278 -3.644003 -2.607256 -47.851735 -27.787785 -3.467708 178.766077 -62.813302 -179.403934 0.000000 0.000000 0.000000 10.233616 -1.313803 -0.335414 1.567204 12.555626 -5.837590 2.446072 1.192294 1.714919 -75.223585 25.320471 29.844802 -179.151354 50.432621 177.064212 0.000000 0.000000 0.000000 
